<svg viewBox="0 0 40 40" fill="none" xmlns="http://www.w3.org/2000/svg">
<style>
  :root {
    --color-N600: #0f1e57;
    --color-brand: #e4002b;
    --color-gray-light: #e6e9f3;
  }
  @media (prefers-color-scheme: dark) {
    :root {
      --color-N600: #e5eaff;
      --color-gray-light: #1a2a5e;
    }
  }
</style>
<path fill-rule="evenodd" clip-rule="evenodd" d="M9 20.151C10.65 17.7676 15.16 13.001 20 13.001C24.84 13.001 29.35 17.7676 31 20.151C29.5333 22.5343 25.28 27.301 20 27.301C14.72 27.301 10.4667 22.5343 9 20.151ZM20 24.551C22.43 24.551 24.4 22.581 24.4 20.151C24.4 17.7209 22.43 15.751 20 15.751C17.5699 15.751 15.6 17.7209 15.6 20.151C15.6 22.581 17.5699 24.551 20 24.551Z" fill="var(--color-gray-light, #e6e9f3)"/>
<path fill-rule="evenodd" clip-rule="evenodd" d="M19.8684 16.6943C18.0083 16.6943 16.5 18.2028 16.5 20.064C16.5 21.9253 18.0083 23.4337 19.8684 23.4337C21.7285 23.4337 23.2368 21.9253 23.2368 20.064C23.2368 18.2028 21.7285 16.6943 19.8684 16.6943ZM15 20.064C15 17.3748 17.1794 15.1943 19.8684 15.1943C22.5574 15.1943 24.7368 17.3748 24.7368 20.064C24.7368 22.7533 22.5574 24.9337 19.8684 24.9337C17.1794 24.9337 15 22.7533 15 20.064Z" fill="var(--color-N600, #0f1e57)"/>
<path fill-rule="evenodd" clip-rule="evenodd" d="M19.75 13.751C18.0746 13.751 16.3963 14.0757 13.9588 15.8545C12.2439 17.106 10.5652 18.9231 9.6936 20.0053C10.5776 21.1497 12.2562 23.136 13.9588 24.3784C16.3963 26.1572 18.0746 26.4819 19.75 26.4819C21.4254 26.4819 23.1037 26.1572 25.5412 24.3784C27.2481 23.1328 28.9265 21.2307 29.8048 20.1165C28.9265 19.0022 27.2481 17.1001 25.5412 15.8545C23.1037 14.0757 21.4254 13.751 19.75 13.751ZM31.3133 19.6189C30.5283 18.5612 28.5295 16.1783 26.4254 14.6428C23.7296 12.6755 21.7413 12.251 19.75 12.251C17.7587 12.251 15.7704 12.6755 13.0746 14.6428C10.9437 16.1979 8.91141 18.5125 8.14541 19.5559C7.95153 19.8201 7.95153 20.1795 8.14541 20.4436C8.88764 21.4547 10.9235 24.0204 13.0746 25.5901C15.7704 27.5574 17.7587 27.9819 19.75 27.9819C21.7413 27.9819 23.7296 27.5574 26.4254 25.5901C28.5295 24.0546 30.5283 21.6717 31.3133 20.614C31.4363 20.4745 31.5004 20.2963 31.5 20.1165C31.5004 19.9366 31.4363 19.7585 31.3133 19.6189Z" fill="var(--color-N600, #0f1e57)"/>
<path d="M20 6.00098C21.1046 6.00098 22 5.10555 22 4.00098C22 2.89641 21.1046 2.00098 20 2.00098C18.8954 2.00098 18 2.89641 18 4.00098C18 5.10555 18.8954 6.00098 20 6.00098Z" fill="var(--color-brand, #e4002b)"/>
<path d="M5 31.001C6.10457 31.001 7 30.1055 7 29.001C7 27.8964 6.10457 27.001 5 27.001C3.89543 27.001 3 27.8964 3 29.001C3 30.1055 3.89543 31.001 5 31.001Z" fill="var(--color-brand, #e4002b)"/>
<path d="M35 31.001C36.1046 31.001 37 30.1055 37 29.001C37 27.8964 36.1046 27.001 35 27.001C33.8954 27.001 33 27.8964 33 29.001C33 30.1055 33.8954 31.001 35 31.001Z" fill="var(--color-brand, #e4002b)"/>
<path fill-rule="evenodd" clip-rule="evenodd" d="M19.4587 37.6569C19.6818 37.7806 19.9524 37.7824 20.1771 37.6618L31.3547 31.6618C31.7197 31.4659 31.8567 31.0112 31.6608 30.6463C31.4649 30.2813 31.0103 30.1443 30.6453 30.3402L19.8282 36.1466L9.36367 30.345C9.00141 30.1442 8.54492 30.2751 8.34408 30.6373C8.14324 30.9996 8.27409 31.4561 8.63636 31.6569L19.4587 37.6569Z" fill="var(--color-N600, #0f1e57)"/>
<path fill-rule="evenodd" clip-rule="evenodd" d="M35.75 12.501C35.75 12.2587 35.633 12.0314 35.4359 11.8907L24.9359 4.39088C24.5988 4.15013 24.1304 4.22821 23.8897 4.56527C23.6489 4.90233 23.727 5.37074 24.0641 5.61149L34.25 12.8869L34.25 25.0011C34.25 25.4154 34.5857 25.7511 35 25.7511C35.4142 25.7511 35.75 25.4154 35.75 25.0011L35.75 12.501Z" fill="var(--color-N600, #0f1e57)"/>
<path fill-rule="evenodd" clip-rule="evenodd" d="M3.51978 12.501C3.51978 12.2504 3.64489 12.0164 3.85325 11.8773L15.0835 4.37748C15.4279 4.14744 15.8937 4.2402 16.1237 4.58466C16.3537 4.92913 16.261 5.39485 15.9165 5.62489L5.01978 12.902L5.0198 25.0011C5.0198 25.4154 4.68401 25.7511 4.2698 25.7511C3.85558 25.7511 3.5198 25.4154 3.5198 25.0011L3.51978 12.501Z" fill="var(--color-N600, #0f1e57)"/>
</svg>
